<?xml version="1.0" encoding="UTF-8" standalone="no"?>
<!DOCTYPE svg PUBLIC "-//W3C//DTD SVG 1.1//EN" "http://www.w3.org/Graphics/SVG/1.1/DTD/svg11.dtd">
<svg width="100%" height="100%" viewBox="0 0 128 128" version="1.1" xmlns="http://www.w3.org/2000/svg" xmlns:xlink="http://www.w3.org/1999/xlink" xml:space="preserve" xmlns:serif="http://www.serif.com/" style="fill-rule:evenodd;clip-rule:evenodd;stroke-linejoin:round;stroke-miterlimit:2;">
    <g>
        <circle id="instagram-back" cx="64" cy="64" r="64" style="fill:rgb(243,153,214);"/>
        <path id="instagram-instagram" d="M91.571,58.483L85.331,58.483C85.785,60.248 86.055,62.092 86.055,63.999C86.055,76.182 76.18,86.055 63.999,86.055C51.82,86.055 41.945,76.182 41.945,63.998C41.945,62.092 42.215,60.248 42.67,58.483L36.429,58.483L36.429,88.812C36.429,90.332 37.664,91.566 39.189,91.566L88.81,91.566C90.336,91.566 91.571,90.332 91.571,88.812L91.571,58.483ZM91.571,39.186C91.571,37.664 90.336,36.429 88.81,36.429L80.542,36.429C79.02,36.429 77.785,37.664 77.785,39.186L77.785,47.458C77.785,48.98 79.02,50.215 80.542,50.215L88.811,50.215C90.336,50.215 91.571,48.98 91.571,47.458L91.571,39.186ZM63.999,50.215C56.386,50.215 50.215,56.385 50.215,63.998C50.215,71.611 56.386,77.785 63.999,77.785C71.613,77.785 77.785,71.611 77.785,63.998C77.785,56.385 71.613,50.215 63.999,50.215M91.571,99.84L36.429,99.84C31.863,99.84 28.16,96.136 28.16,91.566L28.16,36.429C28.16,31.862 31.863,28.16 36.429,28.16L91.571,28.16C96.139,28.16 99.84,31.862 99.84,36.429L99.84,91.566C99.84,96.136 96.139,99.84 91.571,99.84" style="fill:rgb(254,248,239);"/>
    </g>
</svg>
