<?xml version="1.0" encoding="UTF-8" standalone="no"?>
<!DOCTYPE svg PUBLIC "-//W3C//DTD SVG 1.1//EN" "http://www.w3.org/Graphics/SVG/1.1/DTD/svg11.dtd">
<svg width="100%" height="100%" viewBox="0 0 128 128" version="1.1" xmlns="http://www.w3.org/2000/svg" xmlns:xlink="http://www.w3.org/1999/xlink" xml:space="preserve" xmlns:serif="http://www.serif.com/" style="fill-rule:evenodd;clip-rule:evenodd;stroke-linejoin:round;stroke-miterlimit:2;">
    <g>
        <circle id="twitter-back" cx="64" cy="64" r="64" style="fill:rgb(243,153,214);"/>
        <path id="twitter-twitter" d="M99.84,41.77C97.203,42.94 94.369,43.73 91.394,44.085C94.429,42.265 96.762,39.383 97.859,35.949C95.019,37.634 91.871,38.858 88.521,39.518C85.839,36.659 82.017,34.874 77.787,34.874C69.664,34.874 63.081,41.458 63.081,49.579C63.081,50.732 63.211,51.855 63.461,52.931C51.239,52.317 40.403,46.463 33.15,37.566C31.884,39.737 31.159,42.264 31.159,44.959C31.159,50.061 33.755,54.561 37.701,57.199C35.29,57.123 33.023,56.461 31.04,55.359C31.039,55.421 31.039,55.482 31.039,55.545C31.039,62.67 36.108,68.613 42.836,69.965C41.602,70.301 40.302,70.48 38.961,70.48C38.014,70.48 37.092,70.388 36.194,70.217C38.066,76.059 43.497,80.31 49.932,80.429C44.899,84.374 38.558,86.725 31.667,86.725C30.48,86.725 29.31,86.655 28.16,86.519C34.668,90.692 42.398,93.126 50.703,93.126C77.753,93.126 92.545,70.718 92.545,51.284C92.545,50.646 92.53,50.013 92.502,49.382C95.375,47.309 97.869,44.719 99.84,41.77Z" style="fill:rgb(254,248,239);fill-rule:nonzero;"/>
    </g>
</svg>
